<svg xmlns="http://www.w3.org/2000/svg" version="1.1" xmlns:xlink="http://www.w3.org/1999/xlink" width="512" height="512" x="0" y="0" viewBox="0 0 2833 2833" style="enable-background:new 0 0 512 512" xml:space="preserve" class=""><g><circle cx="1417" cy="1417" r="1417" fill="#ff700d" data-original="#ff700d" class=""></circle><path fill="#ffffff" d="M1973 2049h-720c-232 0-329-295-135-431-27-145 81-282 237-281 26-141 152-247 301-247 194 0 340 177 300 370 279-13 414 316 227 503-56 56-130 86-210 86zM924 1042l-71-121c-27-46 42-86 69-41l71 122c43-19 89-32 137-36V824c0-53 80-53 80 0v142c49 4 96 16 140 36l69-121c25-46 95-7 69 39l-68 121c11 8 22 17 33 26-73 45-130 112-160 195-151 28-264 162-259 322-48 46-82 106-95 171-47-30-87-69-119-114l-119 70c-45 26-86-42-41-69l120-70c-20-43-33-90-37-139H604c-52 0-52-80 0-80h139c4-50 17-97 38-141l-121-71c-45-26-4-95 41-68l120 70c29-39 63-73 103-101z" data-original="#ffffff" class=""></path></g></svg>