<svg xmlns="http://www.w3.org/2000/svg" version="1.1" xmlns:xlink="http://www.w3.org/1999/xlink" width="512" height="512" x="0" y="0" viewBox="0 0 128 128" style="enable-background:new 0 0 512 512" xml:space="preserve" class=""><g><circle cx="114" cy="12" r="2" fill="#000000" data-original="#000000" class=""></circle><circle cx="106" cy="12" r="2" fill="#000000" data-original="#000000" class=""></circle><circle cx="98" cy="12" r="2" fill="#000000" data-original="#000000" class=""></circle><path d="M121 0H7a7 7 0 0 0-7 7v114a7 7 0 0 0 7 7h114a7 7 0 0 0 7-7V7a7 7 0 0 0-7-7zM7 4h114a3 3 0 0 1 3 3v13H4V7a3 3 0 0 1 3-3zm114 120H7a3 3 0 0 1-3-3V24h120v97a3 3 0 0 1-3 3z" fill="#000000" data-original="#000000" class=""></path><path d="M64.1 84.3c-7.82 0-14.92 3.4-18.1 8.7a2 2 0 1 0 3.43 2c2.47-4.09 8.23-6.73 14.67-6.73 6.07 0 11.69 2.44 14.32 6.21a2 2 0 1 0 3.28-2.28c-3.4-4.86-10.15-7.9-17.6-7.9zM48.59 71.41a2 2 0 0 0 2.82-2.82L44.83 62l6.58-6.59a2 2 0 0 0-2.82-2.82L42 59.17l-6.59-6.58a2 2 0 0 0-2.82 2.82L39.17 62l-6.58 6.59a2 2 0 1 0 2.82 2.82L42 64.83zM95.41 52.59a2 2 0 0 0-2.82 0L86 59.17l-6.59-6.58a2 2 0 0 0-2.82 2.82L83.17 62l-6.58 6.59a2 2 0 1 0 2.82 2.82L86 64.83l6.59 6.58a2 2 0 0 0 2.82-2.82L88.83 62l6.58-6.59a2 2 0 0 0 0-2.82z" fill="#000000" data-original="#000000" class=""></path></g></svg>